<?xml version="1.0" standalone="no"?>
<svg width="512" height="512" viewBox="0 0 512 512" xmlns="http://www.w3.org/2000/svg">
  <defs>
    <linearGradient id="grad-owl-stressed" x1="0%" y1="0%" x2="0%" y2="100%">
      <stop offset="0%" stop-color="#e54848"/>
      <stop offset="100%" stop-color="#000000"/>
    </linearGradient>
  </defs>
  <rect x="0" y="0" width="512" height="512" rx="110" ry="110" fill="url(#grad-owl-stressed)"/>
  <path d="M 76 512 C 76 256, 106 106, 256 106 C 406 106, 436 256, 436 512 Z" fill="#F8FAFC" opacity="0.9"/>
  <path d="M 126 121 L 86 71 L 66 216 Z" fill="#E2E8F0"/>
  <path d="M 386 121 L 426 71 L 446 216 Z" fill="#E2E8F0"/>
  <circle cx="146" cy="236" r="105" fill="white"/>
  <circle cx="366" cy="236" r="105" fill="white"/>
  <circle cx="146" cy="236" r="89.25" fill="#FFD700"/>
  <circle cx="366" cy="236" r="89.25" fill="#FFD700"/>
  <circle cx="146" cy="236" r="12" fill="#0F172A"/>
  <circle cx="366" cy="236" r="12" fill="#0F172A"/>
  <circle cx="177.5" cy="204.5" r="26.25" fill="white" opacity="0.8"/>
  <circle cx="397.5" cy="204.5" r="26.25" fill="white" opacity="0.8"/>
  <path d="M 31 236 Q 146 341 261 236 Z" fill="#F8FAFC" opacity="0.8"/>
  <path d="M 251 236 Q 366 341 481 236 Z" fill="#F8FAFC" opacity="0.8"/>
  <path d="M 216 288.5 L 296 288.5 L 256 348.5 Z" fill="#F97316" stroke="#0F172A" stroke-width="2" stroke-linejoin="round"/>
</svg>
